<svg width="20" height="20" viewBox="0 0 13 13" fill="none" xmlns="http://www.w3.org/2000/svg">
<path d="M6.15544 0C3.78252 0 1.84663 1.85841 1.84663 4.13636C1.84663 5.56045 2.60375 6.825 3.75113 7.57132C1.55548 8.47541 0 10.5672 0 13H1.23109C1.23109 10.3823 3.42858 8.27273 6.15544 8.27273C8.8823 8.27273 11.0798 10.3823 11.0798 13H12.3109C12.3109 10.5672 10.7554 8.476 8.55976 7.57073C9.14535 7.19123 9.62515 6.67975 9.95716 6.08104C10.2892 5.48233 10.4633 4.81463 10.4642 4.13636C10.4642 1.85841 8.52836 0 6.15544 0ZM6.15544 1.18182C7.86234 1.18182 9.23316 2.49777 9.23316 4.13636C9.23316 5.77495 7.86234 7.09091 6.15544 7.09091C4.44854 7.09091 3.07772 5.77495 3.07772 4.13636C3.07772 2.49777 4.44854 1.18182 6.15544 1.18182Z" fill="#173F5F"/>
</svg>
