<svg width="38" height="35" viewBox="0 0 38 35" fill="none" xmlns="http://www.w3.org/2000/svg">
<g id="akar-icons:github-fill">
<g clip-path="url(#clip0_12_382)">
<g id="Group">
<path id="Vector" fill-rule="evenodd" clip-rule="evenodd" d="M19.1052 0.12793C8.94939 0.12793 0.723633 7.73449 0.723633 17.1258C0.723633 24.6474 5.98536 31.0004 13.292 33.2526C14.2111 33.4013 14.5558 32.8914 14.5558 32.4452C14.5558 32.0415 14.5328 30.7029 14.5328 29.2793C9.91442 30.0655 8.71962 28.2382 8.35199 27.2821C8.14519 26.7934 7.24909 25.2848 6.46788 24.8811C5.82452 24.5624 4.90544 23.7763 6.4449 23.755C7.89245 23.7338 8.92641 24.9874 9.27106 25.4973C10.9254 28.0682 13.5678 27.3458 14.6247 26.8996C14.7855 25.7948 15.2681 25.0511 15.7965 24.6262C11.7066 24.2012 7.43291 22.7351 7.43291 16.2334C7.43291 14.3849 8.14519 12.8551 9.31702 11.6653C9.1332 11.2403 8.48985 9.49802 9.50083 7.16081C9.50083 7.16081 11.0403 6.71462 14.5558 8.9031C16.0263 8.52065 17.5887 8.32942 19.1512 8.32942C20.7136 8.32942 22.276 8.52065 23.7466 8.9031C27.262 6.69337 28.8015 7.16081 28.8015 7.16081C29.8125 9.49802 29.1691 11.2403 28.9853 11.6653C30.1571 12.8551 30.8694 14.3637 30.8694 16.2334C30.8694 22.7564 26.5727 24.2012 22.4828 24.6262C23.1492 25.1573 23.7236 26.1772 23.7236 27.7708C23.7236 30.0442 23.7006 31.8715 23.7006 32.4452C23.7006 32.8914 24.0453 33.4226 24.9643 33.2526C28.6133 32.1133 31.7842 29.9446 34.0305 27.0517C36.2769 24.1588 37.4857 20.6873 37.4868 17.1258C37.4868 7.73449 29.261 0.12793 19.1052 0.12793Z" fill="black"/>
</g>
</g>
</g>
<defs>
<clipPath id="clip0_12_382">
<rect x="0.723633" y="0.12793" width="36.7631" height="33.9958" rx="16.9979" fill="white"/>
</clipPath>
</defs>
</svg>
