<svg width="37" height="35" viewBox="0 0 37 35" fill="none" xmlns="http://www.w3.org/2000/svg">
<g id="bi:facebook">
<g clip-path="url(#clip0_12_393)">
<g id="Group">
<path id="Vector" d="M36.8117 17.2301C36.8117 7.78353 28.5813 0.125977 18.4301 0.125977C8.27429 0.128101 0.0439453 7.78354 0.0439453 17.2322C0.0439453 25.7673 6.76701 32.8427 15.5534 34.126V22.1744H10.8891V17.2322H15.558V13.4608C15.558 9.17524 18.3037 6.80828 22.5016 6.80828C24.5144 6.80828 26.6168 7.14186 26.6168 7.14186V11.3488H24.2984C22.0168 11.3488 21.3045 12.6683 21.3045 14.0218V17.2301H26.4008L25.5874 22.1723H21.3022V34.1239C30.0886 32.8406 36.8117 25.7652 36.8117 17.2301Z" fill="#059BE5"/>
</g>
</g>
</g>
<defs>
<clipPath id="clip0_12_393">
<rect x="0.0478516" y="0.12793" width="36.7631" height="33.9958" rx="16.9979" fill="white"/>
</clipPath>
</defs>
</svg>
