<svg width="20" height="20" viewBox="0 0 12 13" fill="none" xmlns="http://www.w3.org/2000/svg">
<path d="M6.27456 0C4.86631 0 3.71038 1.12675 3.71038 2.49943V2.99932H1.17799L1.14619 3.46822L0.633353 12.4662L0.601044 12.9971H11.9476L11.9158 12.4657L11.4029 3.46772L11.3706 2.99932H8.83875V2.49943C8.83875 1.12675 7.68282 0 6.27456 0ZM6.27456 0.999774C6.6826 0.999774 7.07393 1.15777 7.36246 1.43901C7.65098 1.72026 7.81308 2.1017 7.81308 2.49943V2.99932H4.73605V2.49943C4.73605 2.1017 4.89814 1.72026 5.18667 1.43901C5.4752 1.15777 5.86653 0.999774 6.27456 0.999774ZM2.13956 3.9991H3.71038V5.49876H4.73605V3.9991H7.81308V5.49876H8.83875V3.9991H10.4096L10.8583 11.9973H1.69134L2.13956 3.9991Z" fill="#173F5F"/>
</svg>
