<svg width="38" height="35" viewBox="0 0 38 35" fill="none" xmlns="http://www.w3.org/2000/svg">
<g id="flat-color-icons:google">
<g clip-path="url(#clip0_12_374)">
<g id="Group 2212">
<path id="Vector" d="M37.3357 14.329H35.8551V14.2585H19.3119V21.0575H29.7001C28.1846 25.0154 24.1122 27.8566 19.3119 27.8566C13.2213 27.8566 8.28317 23.2902 8.28317 17.658C8.28317 12.0259 13.2213 7.45944 19.3119 7.45944C22.1233 7.45944 24.6811 8.44021 26.6286 10.0422L31.8277 5.23446C28.5448 2.40521 24.1535 0.6604 19.3119 0.6604C9.16087 0.6604 0.930664 8.27108 0.930664 17.658C0.930664 27.0449 9.16087 34.6556 19.3119 34.6556C29.463 34.6556 37.6932 27.0449 37.6932 17.658C37.6932 16.5183 37.5663 15.4058 37.3357 14.329Z" fill="#FFC107"/>
<path id="Vector_2" d="M3.04883 9.74647L9.08799 13.842C10.7221 10.1009 14.6796 7.45944 19.3107 7.45944C22.1221 7.45944 24.6799 8.44021 26.6274 10.0422L31.8265 5.23446C28.5436 2.4052 24.1524 0.6604 19.3107 0.6604C12.2505 0.6604 6.12769 4.34633 3.04883 9.74647Z" fill="#FF3D00"/>
<path id="Vector_3" d="M19.3122 34.6562C24.06 34.6562 28.3741 32.976 31.6359 30.2436L25.9469 25.7919C24.0394 27.1334 21.7086 27.8589 19.3122 27.8572C14.5312 27.8572 10.4717 25.0381 8.94237 21.104L2.94824 25.3747C5.99034 30.8793 12.1683 34.6562 19.3122 34.6562Z" fill="#4CAF50"/>
<path id="Vector_4" d="M37.3358 14.3291H35.8551V14.2585H19.312V21.0576H29.7002C28.9752 22.9413 27.6694 24.5873 25.944 25.7923L25.9467 25.7906L31.6357 30.2422C31.2332 30.5805 37.6933 26.1569 37.6933 17.6581C37.6933 16.5184 37.5664 15.4059 37.3358 14.3291Z" fill="#1976D2"/>
</g>
</g>
</g>
<defs>
<clipPath id="clip0_12_374">
<rect x="0.930664" y="0.6604" width="36.7631" height="33.9958" rx="16.9979" fill="white"/>
</clipPath>
</defs>
</svg>
